%TF.GenerationSoftware,KiCad,Pcbnew,9.0.3*%
%TF.CreationDate,2026-01-13T18:55:34-07:00*%
%TF.ProjectId,pocket-heat-lab,706f636b-6574-42d6-9865-61742d6c6162,rev?*%
%TF.SameCoordinates,Original*%
%TF.FileFunction,Copper,L2,Bot*%
%TF.FilePolarity,Positive*%
%FSLAX46Y46*%
G04 Gerber Fmt 4.6, Leading zero omitted, Abs format (unit mm)*
G04 Created by KiCad (PCBNEW 9.0.3) date 2026-01-13 18:55:34*
%MOMM*%
%LPD*%
G01*
G04 APERTURE LIST*
%TA.AperFunction,ComponentPad*%
%ADD10O,3.000000X2.000000*%
%TD*%
%TA.AperFunction,ComponentPad*%
%ADD11R,1.117600X1.117600*%
%TD*%
%TA.AperFunction,ComponentPad*%
%ADD12C,1.117600*%
%TD*%
%TA.AperFunction,ComponentPad*%
%ADD13C,3.600000*%
%TD*%
%TA.AperFunction,ConnectorPad*%
%ADD14C,5.600000*%
%TD*%
%TA.AperFunction,ComponentPad*%
%ADD15O,3.000000X1.700000*%
%TD*%
%TA.AperFunction,ComponentPad*%
%ADD16R,2.000000X3.000000*%
%TD*%
%TA.AperFunction,ComponentPad*%
%ADD17O,2.000000X3.000000*%
%TD*%
%TA.AperFunction,ComponentPad*%
%ADD18R,3.000000X1.700000*%
%TD*%
%TA.AperFunction,ComponentPad*%
%ADD19O,1.905000X3.000000*%
%TD*%
%TA.AperFunction,ComponentPad*%
%ADD20R,1.905000X3.000000*%
%TD*%
%TA.AperFunction,Conductor*%
%ADD21C,1.000000*%
%TD*%
%TA.AperFunction,Conductor*%
%ADD22C,2.000000*%
%TD*%
%TA.AperFunction,Conductor*%
%ADD23C,1.500000*%
%TD*%
G04 APERTURE END LIST*
D10*
%TO.P,R2,1*%
%TO.N,Led Indicador*%
X139500000Y-88500000D03*
%TO.P,R2,2*%
%TO.N,Net-(D1-A)*%
X126800000Y-88500000D03*
%TD*%
D11*
%TO.P,R4,1*%
%TO.N,5v Arduino*%
X108500000Y-83500000D03*
D12*
%TO.P,R4,2,2*%
%TO.N,Sensor*%
X106823600Y-83500000D03*
%TD*%
D13*
%TO.P,REF\u002A\u002A,1*%
%TO.N,N/C*%
X104000000Y-64000000D03*
D14*
X104000000Y-64000000D03*
%TD*%
D13*
%TO.P,REF\u002A\u002A,1*%
%TO.N,N/C*%
X104000000Y-96000000D03*
D14*
X104000000Y-96000000D03*
%TD*%
D13*
%TO.P,REF\u002A\u002A,1*%
%TO.N,N/C*%
X146000000Y-96000000D03*
D14*
X146000000Y-96000000D03*
%TD*%
D10*
%TO.P,R1,1*%
%TO.N,PWM Calentador*%
X139500000Y-80500000D03*
%TO.P,R1,2*%
%TO.N,Net-(Q1-B)*%
X126800000Y-80500000D03*
%TD*%
D15*
%TO.P,J1,1,Pin_1*%
%TO.N,PWM Calentador*%
X146000000Y-71500000D03*
%TO.P,J1,2,Pin_2*%
%TO.N,Sensor*%
X146000000Y-74040000D03*
%TO.P,J1,3,Pin_3*%
%TO.N,Led Indicador*%
X146000000Y-76580000D03*
%TD*%
D16*
%TO.P,D1,1,K*%
%TO.N,GND*%
X136960000Y-95500000D03*
D17*
%TO.P,D1,2,A*%
%TO.N,Net-(D1-A)*%
X139500000Y-95500000D03*
%TD*%
D15*
%TO.P,J2,1,Pin_1*%
%TO.N,5v Arduino*%
X146050000Y-83960000D03*
D18*
%TO.P,J2,2,Pin_2*%
%TO.N,GND*%
X146050000Y-86500000D03*
%TD*%
D19*
%TO.P,Q1,1,B*%
%TO.N,Net-(Q1-B)*%
X104920000Y-79500000D03*
%TO.P,Q1,2,C*%
%TO.N,12V Potencia*%
X107460000Y-79500000D03*
D20*
%TO.P,Q1,3,E*%
%TO.N,GND*%
X110000000Y-79500000D03*
%TD*%
D10*
%TO.P,R3,1*%
%TO.N,Sensor*%
X139500000Y-84500000D03*
%TO.P,R3,2*%
%TO.N,GND*%
X126800000Y-84500000D03*
%TD*%
D17*
%TO.P,J3,1,Pin_1*%
%TO.N,12V Potencia*%
X127225000Y-95717500D03*
D16*
%TO.P,J3,2,Pin_2*%
%TO.N,GND*%
X129765000Y-95717500D03*
%TD*%
D13*
%TO.P,REF\u002A\u002A,1*%
%TO.N,N/C*%
X146000000Y-64000000D03*
D14*
X146000000Y-64000000D03*
%TD*%
D21*
%TO.N,Net-(D1-A)*%
X139500000Y-94138000D02*
X139500000Y-95500000D01*
X126800000Y-88500000D02*
X133862000Y-88500000D01*
X133862000Y-88500000D02*
X139500000Y-94138000D01*
%TO.N,PWM Calentador*%
X144000000Y-71500000D02*
X146000000Y-71500000D01*
X139500000Y-76000000D02*
X144000000Y-71500000D01*
X139500000Y-80500000D02*
X139500000Y-76000000D01*
%TO.N,Sensor*%
X102049000Y-71398976D02*
X106898976Y-66549000D01*
X105690000Y-83500000D02*
X102049000Y-79859000D01*
X106823600Y-83500000D02*
X105690000Y-83500000D01*
X142000000Y-77000000D02*
X144960000Y-74040000D01*
X121549000Y-66549000D02*
X139500000Y-84500000D01*
X142000000Y-82000000D02*
X142000000Y-77000000D01*
X144960000Y-74040000D02*
X146000000Y-74040000D01*
X106898976Y-66549000D02*
X121549000Y-66549000D01*
X139500000Y-84500000D02*
X142000000Y-82000000D01*
X102049000Y-79859000D02*
X102049000Y-71398976D01*
%TO.N,Led Indicador*%
X146000000Y-76580000D02*
X143849000Y-78731000D01*
X143849000Y-78731000D02*
X143849000Y-84151000D01*
X143849000Y-84151000D02*
X139500000Y-88500000D01*
%TO.N,5v Arduino*%
X141500000Y-98500000D02*
X120740000Y-98500000D01*
X147960000Y-83960000D02*
X149000000Y-85000000D01*
X108730000Y-83730000D02*
X108500000Y-83500000D01*
X142000000Y-98000000D02*
X141500000Y-98500000D01*
X142000000Y-94302000D02*
X142000000Y-98000000D01*
X149000000Y-87302000D02*
X142000000Y-94302000D01*
X149000000Y-85000000D02*
X149000000Y-87302000D01*
X146050000Y-83960000D02*
X147960000Y-83960000D01*
X108730000Y-86490000D02*
X108730000Y-83730000D01*
X120740000Y-98500000D02*
X108730000Y-86490000D01*
D22*
%TO.N,12V Potencia*%
X119500000Y-87992500D02*
X119500000Y-77500000D01*
X119500000Y-77500000D02*
X116500000Y-74500000D01*
X107460000Y-76540000D02*
X107460000Y-79500000D01*
X127225000Y-95717500D02*
X119500000Y-87992500D01*
X116500000Y-74500000D02*
X109500000Y-74500000D01*
X109500000Y-74500000D02*
X107460000Y-76540000D01*
D23*
%TO.N,Net-(Q1-B)*%
X104500000Y-72500000D02*
X104500000Y-79080000D01*
X126800000Y-80500000D02*
X126800000Y-75800000D01*
X107500000Y-69500000D02*
X104500000Y-72500000D01*
X120500000Y-69500000D02*
X107500000Y-69500000D01*
X104500000Y-79080000D02*
X104920000Y-79500000D01*
X126800000Y-75800000D02*
X120500000Y-69500000D01*
%TD*%
M02*
