%TF.GenerationSoftware,KiCad,Pcbnew,9.0.3*%
%TF.CreationDate,2026-01-13T18:55:34-07:00*%
%TF.ProjectId,pocket-heat-lab,706f636b-6574-42d6-9865-61742d6c6162,rev?*%
%TF.SameCoordinates,Original*%
%TF.FileFunction,Copper,L1,Top*%
%TF.FilePolarity,Positive*%
%FSLAX46Y46*%
G04 Gerber Fmt 4.6, Leading zero omitted, Abs format (unit mm)*
G04 Created by KiCad (PCBNEW 9.0.3) date 2026-01-13 18:55:34*
%MOMM*%
%LPD*%
G01*
G04 APERTURE LIST*
%TA.AperFunction,ComponentPad*%
%ADD10O,3.000000X2.000000*%
%TD*%
%TA.AperFunction,ComponentPad*%
%ADD11R,1.117600X1.117600*%
%TD*%
%TA.AperFunction,ComponentPad*%
%ADD12C,1.117600*%
%TD*%
%TA.AperFunction,ComponentPad*%
%ADD13C,3.600000*%
%TD*%
%TA.AperFunction,ConnectorPad*%
%ADD14C,5.600000*%
%TD*%
%TA.AperFunction,ComponentPad*%
%ADD15O,3.000000X1.700000*%
%TD*%
%TA.AperFunction,ComponentPad*%
%ADD16R,2.000000X3.000000*%
%TD*%
%TA.AperFunction,ComponentPad*%
%ADD17O,2.000000X3.000000*%
%TD*%
%TA.AperFunction,ComponentPad*%
%ADD18R,3.000000X1.700000*%
%TD*%
%TA.AperFunction,ComponentPad*%
%ADD19O,1.905000X3.000000*%
%TD*%
%TA.AperFunction,ComponentPad*%
%ADD20R,1.905000X3.000000*%
%TD*%
G04 APERTURE END LIST*
D10*
%TO.P,R2,1*%
%TO.N,Led Indicador*%
X139500000Y-88500000D03*
%TO.P,R2,2*%
%TO.N,Net-(D1-A)*%
X126800000Y-88500000D03*
%TD*%
D11*
%TO.P,R4,1*%
%TO.N,5v Arduino*%
X108500000Y-83500000D03*
D12*
%TO.P,R4,2,2*%
%TO.N,Sensor*%
X106823600Y-83500000D03*
%TD*%
D13*
%TO.P,REF\u002A\u002A,1*%
%TO.N,N/C*%
X104000000Y-64000000D03*
D14*
X104000000Y-64000000D03*
%TD*%
D13*
%TO.P,REF\u002A\u002A,1*%
%TO.N,N/C*%
X104000000Y-96000000D03*
D14*
X104000000Y-96000000D03*
%TD*%
D13*
%TO.P,REF\u002A\u002A,1*%
%TO.N,N/C*%
X146000000Y-96000000D03*
D14*
X146000000Y-96000000D03*
%TD*%
D10*
%TO.P,R1,1*%
%TO.N,PWM Calentador*%
X139500000Y-80500000D03*
%TO.P,R1,2*%
%TO.N,Net-(Q1-B)*%
X126800000Y-80500000D03*
%TD*%
D15*
%TO.P,J1,1,Pin_1*%
%TO.N,PWM Calentador*%
X146000000Y-71500000D03*
%TO.P,J1,2,Pin_2*%
%TO.N,Sensor*%
X146000000Y-74040000D03*
%TO.P,J1,3,Pin_3*%
%TO.N,Led Indicador*%
X146000000Y-76580000D03*
%TD*%
D16*
%TO.P,D1,1,K*%
%TO.N,GND*%
X136960000Y-95500000D03*
D17*
%TO.P,D1,2,A*%
%TO.N,Net-(D1-A)*%
X139500000Y-95500000D03*
%TD*%
D15*
%TO.P,J2,1,Pin_1*%
%TO.N,5v Arduino*%
X146050000Y-83960000D03*
D18*
%TO.P,J2,2,Pin_2*%
%TO.N,GND*%
X146050000Y-86500000D03*
%TD*%
D19*
%TO.P,Q1,1,B*%
%TO.N,Net-(Q1-B)*%
X104920000Y-79500000D03*
%TO.P,Q1,2,C*%
%TO.N,12V Potencia*%
X107460000Y-79500000D03*
D20*
%TO.P,Q1,3,E*%
%TO.N,GND*%
X110000000Y-79500000D03*
%TD*%
D10*
%TO.P,R3,1*%
%TO.N,Sensor*%
X139500000Y-84500000D03*
%TO.P,R3,2*%
%TO.N,GND*%
X126800000Y-84500000D03*
%TD*%
D17*
%TO.P,J3,1,Pin_1*%
%TO.N,12V Potencia*%
X127225000Y-95717500D03*
D16*
%TO.P,J3,2,Pin_2*%
%TO.N,GND*%
X129765000Y-95717500D03*
%TD*%
D13*
%TO.P,REF\u002A\u002A,1*%
%TO.N,N/C*%
X146000000Y-64000000D03*
D14*
X146000000Y-64000000D03*
%TD*%
%TA.AperFunction,Conductor*%
%TO.N,GND*%
G36*
X145483417Y-60520185D02*
G01*
X145529172Y-60572989D01*
X145539116Y-60642147D01*
X145510091Y-60705703D01*
X145451313Y-60743477D01*
X145440569Y-60746117D01*
X145197097Y-60794545D01*
X145197086Y-60794548D01*
X144886752Y-60888686D01*
X144587150Y-61012786D01*
X144587145Y-61012788D01*
X144301169Y-61165646D01*
X144301151Y-61165657D01*
X144031532Y-61345811D01*
X144031518Y-61345821D01*
X143780841Y-61551546D01*
X143551546Y-61780841D01*
X143345821Y-62031518D01*
X143345811Y-62031532D01*
X143165657Y-62301151D01*
X143165646Y-62301169D01*
X143012788Y-62587145D01*
X143012786Y-62587150D01*
X142888686Y-62886752D01*
X142794548Y-63197086D01*
X142794545Y-63197097D01*
X142731287Y-63515125D01*
X142731284Y-63515142D01*
X142699500Y-63837860D01*
X142699500Y-64162139D01*
X142731284Y-64484857D01*
X142731287Y-64484874D01*
X142794545Y-64802902D01*
X142794548Y-64802913D01*
X142888686Y-65113247D01*
X143012786Y-65412849D01*
X143012788Y-65412854D01*
X143165646Y-65698830D01*
X143165657Y-65698848D01*
X143345811Y-65968467D01*
X143345821Y-65968481D01*
X143551546Y-66219158D01*
X143780841Y-66448453D01*
X143780846Y-66448457D01*
X143780847Y-66448458D01*
X144031524Y-66654183D01*
X144301158Y-66834347D01*
X144301167Y-66834352D01*
X144301169Y-66834353D01*
X144587145Y-66987211D01*
X144587147Y-66987211D01*
X144587153Y-66987215D01*
X144886754Y-67111314D01*
X145197077Y-67205449D01*
X145197083Y-67205450D01*
X145197086Y-67205451D01*
X145197097Y-67205454D01*
X145396528Y-67245122D01*
X145515132Y-67268714D01*
X145837857Y-67300500D01*
X145837860Y-67300500D01*
X146162140Y-67300500D01*
X146162143Y-67300500D01*
X146484868Y-67268714D01*
X146642295Y-67237399D01*
X146802902Y-67205454D01*
X146802913Y-67205451D01*
X146802913Y-67205450D01*
X146802923Y-67205449D01*
X147113246Y-67111314D01*
X147412847Y-66987215D01*
X147698842Y-66834347D01*
X147968476Y-66654183D01*
X148219153Y-66448458D01*
X148448458Y-66219153D01*
X148654183Y-65968476D01*
X148834347Y-65698842D01*
X148987215Y-65412847D01*
X149111314Y-65113246D01*
X149205449Y-64802923D01*
X149205451Y-64802913D01*
X149205454Y-64802902D01*
X149253883Y-64559430D01*
X149286267Y-64497519D01*
X149346983Y-64462945D01*
X149416753Y-64466684D01*
X149473425Y-64507550D01*
X149499006Y-64572568D01*
X149499500Y-64583621D01*
X149499500Y-95416378D01*
X149479815Y-95483417D01*
X149427011Y-95529172D01*
X149357853Y-95539116D01*
X149294297Y-95510091D01*
X149256523Y-95451313D01*
X149253883Y-95440569D01*
X149205454Y-95197097D01*
X149205451Y-95197086D01*
X149205450Y-95197083D01*
X149205449Y-95197077D01*
X149111314Y-94886754D01*
X148987215Y-94587153D01*
X148903784Y-94431066D01*
X148834353Y-94301169D01*
X148834352Y-94301167D01*
X148834347Y-94301158D01*
X148654183Y-94031524D01*
X148448458Y-93780847D01*
X148448457Y-93780846D01*
X148448453Y-93780841D01*
X148219158Y-93551546D01*
X147968481Y-93345821D01*
X147968480Y-93345820D01*
X147968476Y-93345817D01*
X147698842Y-93165653D01*
X147698837Y-93165650D01*
X147698830Y-93165646D01*
X147412854Y-93012788D01*
X147412849Y-93012786D01*
X147113247Y-92888686D01*
X146802913Y-92794548D01*
X146802902Y-92794545D01*
X146484874Y-92731287D01*
X146484857Y-92731284D01*
X146240812Y-92707248D01*
X146162143Y-92699500D01*
X145837857Y-92699500D01*
X145765099Y-92706666D01*
X145515142Y-92731284D01*
X145515125Y-92731287D01*
X145197097Y-92794545D01*
X145197086Y-92794548D01*
X144886752Y-92888686D01*
X144587150Y-93012786D01*
X144587145Y-93012788D01*
X144301169Y-93165646D01*
X144301151Y-93165657D01*
X144031532Y-93345811D01*
X144031518Y-93345821D01*
X143780841Y-93551546D01*
X143551546Y-93780841D01*
X143345821Y-94031518D01*
X143345811Y-94031532D01*
X143165657Y-94301151D01*
X143165646Y-94301169D01*
X143012788Y-94587145D01*
X143012786Y-94587150D01*
X142888686Y-94886752D01*
X142794548Y-95197086D01*
X142794545Y-95197097D01*
X142731287Y-95515125D01*
X142731284Y-95515142D01*
X142699500Y-95837860D01*
X142699500Y-96162139D01*
X142731284Y-96484857D01*
X142731287Y-96484874D01*
X142794545Y-96802902D01*
X142794548Y-96802913D01*
X142888686Y-97113247D01*
X142959142Y-97283342D01*
X142991730Y-97362017D01*
X143012786Y-97412849D01*
X143012788Y-97412854D01*
X143165646Y-97698830D01*
X143165657Y-97698848D01*
X143345811Y-97968467D01*
X143345821Y-97968481D01*
X143551546Y-98219158D01*
X143780841Y-98448453D01*
X143780846Y-98448457D01*
X143780847Y-98448458D01*
X144031524Y-98654183D01*
X144301158Y-98834347D01*
X144301167Y-98834352D01*
X144301169Y-98834353D01*
X144587145Y-98987211D01*
X144587147Y-98987211D01*
X144587153Y-98987215D01*
X144886754Y-99111314D01*
X145197077Y-99205449D01*
X145197083Y-99205450D01*
X145197086Y-99205451D01*
X145197097Y-99205454D01*
X145440569Y-99253883D01*
X145502480Y-99286268D01*
X145537054Y-99346983D01*
X145533315Y-99416753D01*
X145492449Y-99473425D01*
X145427431Y-99499006D01*
X145416378Y-99499500D01*
X104583622Y-99499500D01*
X104516583Y-99479815D01*
X104470828Y-99427011D01*
X104460884Y-99357853D01*
X104489909Y-99294297D01*
X104548687Y-99256523D01*
X104559431Y-99253883D01*
X104802902Y-99205454D01*
X104802913Y-99205451D01*
X104802913Y-99205450D01*
X104802923Y-99205449D01*
X105113246Y-99111314D01*
X105412847Y-98987215D01*
X105698842Y-98834347D01*
X105968476Y-98654183D01*
X106219153Y-98448458D01*
X106448458Y-98219153D01*
X106654183Y-97968476D01*
X106834347Y-97698842D01*
X106987215Y-97412847D01*
X107111314Y-97113246D01*
X107205449Y-96802923D01*
X107205451Y-96802913D01*
X107205454Y-96802902D01*
X107248201Y-96587993D01*
X107268714Y-96484868D01*
X107300500Y-96162143D01*
X107300500Y-95837857D01*
X107268714Y-95515132D01*
X107245122Y-95396528D01*
X107205454Y-95197097D01*
X107205451Y-95197086D01*
X107205450Y-95197083D01*
X107205449Y-95197077D01*
X107175820Y-95099402D01*
X125724500Y-95099402D01*
X125724500Y-96335597D01*
X125761446Y-96568868D01*
X125834433Y-96793496D01*
X125928194Y-96977510D01*
X125941657Y-97003933D01*
X126080483Y-97195010D01*
X126247490Y-97362017D01*
X126438567Y-97500843D01*
X126537991Y-97551502D01*
X126649003Y-97608066D01*
X126649005Y-97608066D01*
X126649008Y-97608068D01*
X126769412Y-97647189D01*
X126873631Y-97681053D01*
X127106903Y-97718000D01*
X127106908Y-97718000D01*
X127343097Y-97718000D01*
X127576368Y-97681053D01*
X127800992Y-97608068D01*
X128011433Y-97500843D01*
X128202510Y-97362017D01*
X128369517Y-97195010D01*
X128508343Y-97003933D01*
X128615568Y-96793492D01*
X128688553Y-96568868D01*
X128725500Y-96335597D01*
X128725500Y-95099402D01*
X128693353Y-94896434D01*
X128691051Y-94881902D01*
X137999500Y-94881902D01*
X137999500Y-96118097D01*
X138036446Y-96351368D01*
X138109433Y-96575996D01*
X138163812Y-96682719D01*
X138216657Y-96786433D01*
X138355483Y-96977510D01*
X138522490Y-97144517D01*
X138713567Y-97283343D01*
X138812991Y-97334002D01*
X138924003Y-97390566D01*
X138924005Y-97390566D01*
X138924008Y-97390568D01*
X139044412Y-97429689D01*
X139148631Y-97463553D01*
X139381903Y-97500500D01*
X139381908Y-97500500D01*
X139618097Y-97500500D01*
X139851368Y-97463553D01*
X140075992Y-97390568D01*
X140286433Y-97283343D01*
X140477510Y-97144517D01*
X140644517Y-96977510D01*
X140783343Y-96786433D01*
X140890568Y-96575992D01*
X140963553Y-96351368D01*
X140966052Y-96335592D01*
X141000500Y-96118097D01*
X141000500Y-94881902D01*
X140963553Y-94648631D01*
X140929689Y-94544412D01*
X140890568Y-94424008D01*
X140890566Y-94424005D01*
X140890566Y-94424003D01*
X140796805Y-94239988D01*
X140783343Y-94213567D01*
X140644517Y-94022490D01*
X140477510Y-93855483D01*
X140286433Y-93716657D01*
X140075996Y-93609433D01*
X139851368Y-93536446D01*
X139618097Y-93499500D01*
X139618092Y-93499500D01*
X139381908Y-93499500D01*
X139381903Y-93499500D01*
X139148631Y-93536446D01*
X138924003Y-93609433D01*
X138713566Y-93716657D01*
X138625217Y-93780847D01*
X138522490Y-93855483D01*
X138522488Y-93855485D01*
X138522487Y-93855485D01*
X138355485Y-94022487D01*
X138355485Y-94022488D01*
X138355483Y-94022490D01*
X138348914Y-94031532D01*
X138216657Y-94213566D01*
X138109433Y-94424003D01*
X138036446Y-94648631D01*
X137999500Y-94881902D01*
X128691051Y-94881902D01*
X128690657Y-94879416D01*
X128688553Y-94866132D01*
X128615568Y-94641508D01*
X128615566Y-94641505D01*
X128615566Y-94641503D01*
X128508342Y-94431066D01*
X128503214Y-94424008D01*
X128369517Y-94239990D01*
X128202510Y-94072983D01*
X128011433Y-93934157D01*
X127800996Y-93826933D01*
X127576368Y-93753946D01*
X127343097Y-93717000D01*
X127343092Y-93717000D01*
X127106908Y-93717000D01*
X127106903Y-93717000D01*
X126873631Y-93753946D01*
X126649003Y-93826933D01*
X126438566Y-93934157D01*
X126329550Y-94013362D01*
X126247490Y-94072983D01*
X126247488Y-94072985D01*
X126247487Y-94072985D01*
X126080485Y-94239987D01*
X126080485Y-94239988D01*
X126080483Y-94239990D01*
X126036047Y-94301151D01*
X125941657Y-94431066D01*
X125834433Y-94641503D01*
X125761446Y-94866131D01*
X125724500Y-95099402D01*
X107175820Y-95099402D01*
X107111314Y-94886754D01*
X106987215Y-94587153D01*
X106903784Y-94431066D01*
X106834353Y-94301169D01*
X106834352Y-94301167D01*
X106834347Y-94301158D01*
X106654183Y-94031524D01*
X106448458Y-93780847D01*
X106448457Y-93780846D01*
X106448453Y-93780841D01*
X106219158Y-93551546D01*
X105968481Y-93345821D01*
X105968480Y-93345820D01*
X105968476Y-93345817D01*
X105698842Y-93165653D01*
X105698837Y-93165650D01*
X105698830Y-93165646D01*
X105412854Y-93012788D01*
X105412849Y-93012786D01*
X105113247Y-92888686D01*
X104802913Y-92794548D01*
X104802902Y-92794545D01*
X104484874Y-92731287D01*
X104484857Y-92731284D01*
X104240812Y-92707248D01*
X104162143Y-92699500D01*
X103837857Y-92699500D01*
X103765099Y-92706666D01*
X103515142Y-92731284D01*
X103515125Y-92731287D01*
X103197097Y-92794545D01*
X103197086Y-92794548D01*
X102886752Y-92888686D01*
X102587150Y-93012786D01*
X102587145Y-93012788D01*
X102301169Y-93165646D01*
X102301151Y-93165657D01*
X102031532Y-93345811D01*
X102031518Y-93345821D01*
X101780841Y-93551546D01*
X101551546Y-93780841D01*
X101345821Y-94031518D01*
X101345811Y-94031532D01*
X101165657Y-94301151D01*
X101165646Y-94301169D01*
X101012788Y-94587145D01*
X101012786Y-94587150D01*
X100888686Y-94886752D01*
X100794548Y-95197086D01*
X100794545Y-95197097D01*
X100746117Y-95440569D01*
X100713732Y-95502480D01*
X100653017Y-95537054D01*
X100583247Y-95533315D01*
X100526575Y-95492449D01*
X100500994Y-95427431D01*
X100500500Y-95416378D01*
X100500500Y-88381902D01*
X124799500Y-88381902D01*
X124799500Y-88618097D01*
X124836446Y-88851368D01*
X124909433Y-89075996D01*
X125016657Y-89286433D01*
X125155483Y-89477510D01*
X125322490Y-89644517D01*
X125513567Y-89783343D01*
X125612991Y-89834002D01*
X125724003Y-89890566D01*
X125724005Y-89890566D01*
X125724008Y-89890568D01*
X125844412Y-89929689D01*
X125948631Y-89963553D01*
X126181903Y-90000500D01*
X126181908Y-90000500D01*
X127418097Y-90000500D01*
X127651368Y-89963553D01*
X127875992Y-89890568D01*
X128086433Y-89783343D01*
X128277510Y-89644517D01*
X128444517Y-89477510D01*
X128583343Y-89286433D01*
X128690568Y-89075992D01*
X128763553Y-88851368D01*
X128800500Y-88618097D01*
X128800500Y-88381902D01*
X137499500Y-88381902D01*
X137499500Y-88618097D01*
X137536446Y-88851368D01*
X137609433Y-89075996D01*
X137716657Y-89286433D01*
X137855483Y-89477510D01*
X138022490Y-89644517D01*
X138213567Y-89783343D01*
X138312991Y-89834002D01*
X138424003Y-89890566D01*
X138424005Y-89890566D01*
X138424008Y-89890568D01*
X138544412Y-89929689D01*
X138648631Y-89963553D01*
X138881903Y-90000500D01*
X138881908Y-90000500D01*
X140118097Y-90000500D01*
X140351368Y-89963553D01*
X140575992Y-89890568D01*
X140786433Y-89783343D01*
X140977510Y-89644517D01*
X141144517Y-89477510D01*
X141283343Y-89286433D01*
X141390568Y-89075992D01*
X141463553Y-88851368D01*
X141500500Y-88618097D01*
X141500500Y-88381902D01*
X141463553Y-88148631D01*
X141390566Y-87924003D01*
X141283342Y-87713566D01*
X141144517Y-87522490D01*
X140977510Y-87355483D01*
X140786433Y-87216657D01*
X140575996Y-87109433D01*
X140351368Y-87036446D01*
X140118097Y-86999500D01*
X140118092Y-86999500D01*
X138881908Y-86999500D01*
X138881903Y-86999500D01*
X138648631Y-87036446D01*
X138424003Y-87109433D01*
X138213566Y-87216657D01*
X138104550Y-87295862D01*
X138022490Y-87355483D01*
X138022488Y-87355485D01*
X138022487Y-87355485D01*
X137855485Y-87522487D01*
X137855485Y-87522488D01*
X137855483Y-87522490D01*
X137795862Y-87604550D01*
X137716657Y-87713566D01*
X137609433Y-87924003D01*
X137536446Y-88148631D01*
X137499500Y-88381902D01*
X128800500Y-88381902D01*
X128763553Y-88148631D01*
X128690566Y-87924003D01*
X128583342Y-87713566D01*
X128444517Y-87522490D01*
X128277510Y-87355483D01*
X128086433Y-87216657D01*
X127875996Y-87109433D01*
X127651368Y-87036446D01*
X127418097Y-86999500D01*
X127418092Y-86999500D01*
X126181908Y-86999500D01*
X126181903Y-86999500D01*
X125948631Y-87036446D01*
X125724003Y-87109433D01*
X125513566Y-87216657D01*
X125404550Y-87295862D01*
X125322490Y-87355483D01*
X125322488Y-87355485D01*
X125322487Y-87355485D01*
X125155485Y-87522487D01*
X125155485Y-87522488D01*
X125155483Y-87522490D01*
X125095862Y-87604550D01*
X125016657Y-87713566D01*
X124909433Y-87924003D01*
X124836446Y-88148631D01*
X124799500Y-88381902D01*
X100500500Y-88381902D01*
X100500500Y-83604334D01*
X105764299Y-83604334D01*
X105805007Y-83808980D01*
X105805009Y-83808986D01*
X105884861Y-84001768D01*
X106000784Y-84175259D01*
X106000790Y-84175267D01*
X106148332Y-84322809D01*
X106148340Y-84322815D01*
X106321831Y-84438738D01*
X106378295Y-84462126D01*
X106514614Y-84518591D01*
X106514618Y-84518591D01*
X106514619Y-84518592D01*
X106719265Y-84559300D01*
X106719268Y-84559300D01*
X106927934Y-84559300D01*
X107065614Y-84531912D01*
X107132586Y-84518591D01*
X107325366Y-84438739D01*
X107410986Y-84381529D01*
X107477663Y-84360652D01*
X107545043Y-84379136D01*
X107579140Y-84410318D01*
X107583647Y-84416339D01*
X107583652Y-84416343D01*
X107583654Y-84416346D01*
X107583657Y-84416348D01*
X107698864Y-84502593D01*
X107698871Y-84502597D01*
X107833717Y-84552891D01*
X107833716Y-84552891D01*
X107840644Y-84553635D01*
X107893327Y-84559300D01*
X109106672Y-84559299D01*
X109166283Y-84552891D01*
X109301131Y-84502596D01*
X109416346Y-84416346D01*
X109442131Y-84381902D01*
X137499500Y-84381902D01*
X137499500Y-84618097D01*
X137536446Y-84851368D01*
X137609433Y-85075996D01*
X137711976Y-85277246D01*
X137716657Y-85286433D01*
X137855483Y-85477510D01*
X138022490Y-85644517D01*
X138213567Y-85783343D01*
X138312991Y-85834002D01*
X138424003Y-85890566D01*
X138424005Y-85890566D01*
X138424008Y-85890568D01*
X138544412Y-85929689D01*
X138648631Y-85963553D01*
X138881903Y-86000500D01*
X138881908Y-86000500D01*
X140118097Y-86000500D01*
X140351368Y-85963553D01*
X140575992Y-85890568D01*
X140786433Y-85783343D01*
X140977510Y-85644517D01*
X141144517Y-85477510D01*
X141283343Y-85286433D01*
X141390568Y-85075992D01*
X141463553Y-84851368D01*
X141465387Y-84839786D01*
X141500500Y-84618097D01*
X141500500Y-84381902D01*
X141463553Y-84148631D01*
X141436797Y-84066286D01*
X141390568Y-83924008D01*
X141390565Y-83924004D01*
X141390565Y-83924001D01*
X141380953Y-83905137D01*
X141380952Y-83905136D01*
X141354751Y-83853713D01*
X144049500Y-83853713D01*
X144049500Y-84066286D01*
X144066759Y-84175259D01*
X144082754Y-84276243D01*
X144135552Y-84438739D01*
X144148444Y-84478414D01*
X144244951Y-84667820D01*
X144369890Y-84839786D01*
X144520213Y-84990109D01*
X144692179Y-85115048D01*
X144692181Y-85115049D01*
X144692184Y-85115051D01*
X144881588Y-85211557D01*
X145083757Y-85277246D01*
X145293713Y-85310500D01*
X145293714Y-85310500D01*
X146806286Y-85310500D01*
X146806287Y-85310500D01*
X147016243Y-85277246D01*
X147218412Y-85211557D01*
X147407816Y-85115051D01*
X147461571Y-85075996D01*
X147579786Y-84990109D01*
X147579788Y-84990106D01*
X147579792Y-84990104D01*
X147730104Y-84839792D01*
X147730106Y-84839788D01*
X147730109Y-84839786D01*
X147855048Y-84667820D01*
X147855047Y-84667820D01*
X147855051Y-84667816D01*
X147951557Y-84478412D01*
X148017246Y-84276243D01*
X148050500Y-84066287D01*
X148050500Y-83853713D01*
X148017246Y-83643757D01*
X147951557Y-83441588D01*
X147855051Y-83252184D01*
X147855049Y-83252181D01*
X147855048Y-83252179D01*
X147730109Y-83080213D01*
X147579786Y-82929890D01*
X147407820Y-82804951D01*
X147218414Y-82708444D01*
X147218413Y-82708443D01*
X147218412Y-82708443D01*
X147016243Y-82642754D01*
X147016241Y-82642753D01*
X147016240Y-82642753D01*
X146854957Y-82617208D01*
X146806287Y-82609500D01*
X145293713Y-82609500D01*
X145245042Y-82617208D01*
X145083760Y-82642753D01*
X145083757Y-82642754D01*
X144911048Y-82698871D01*
X144881585Y-82708444D01*
X144692179Y-82804951D01*
X144520213Y-82929890D01*
X144369890Y-83080213D01*
X144244951Y-83252179D01*
X144148444Y-83441585D01*
X144082753Y-83643760D01*
X144049500Y-83853713D01*
X141354751Y-83853713D01*
X141283342Y-83713566D01*
X141144517Y-83522490D01*
X140977510Y-83355483D01*
X140786433Y-83216657D01*
X140736104Y-83191013D01*
X140575996Y-83109433D01*
X140351368Y-83036446D01*
X140118097Y-82999500D01*
X140118092Y-82999500D01*
X138881908Y-82999500D01*
X138881903Y-82999500D01*
X138648631Y-83036446D01*
X138424003Y-83109433D01*
X138213566Y-83216657D01*
X138164675Y-83252179D01*
X138022490Y-83355483D01*
X138022488Y-83355485D01*
X138022487Y-83355485D01*
X137855485Y-83522487D01*
X137855485Y-83522488D01*
X137855483Y-83522490D01*
X137796021Y-83604332D01*
X137716657Y-83713566D01*
X137609433Y-83924003D01*
X137536446Y-84148631D01*
X137499500Y-84381902D01*
X109442131Y-84381902D01*
X109476417Y-84336101D01*
X109501404Y-84302724D01*
X109501404Y-84302723D01*
X109502596Y-84301131D01*
X109552891Y-84166283D01*
X109559300Y-84106673D01*
X109559299Y-82893328D01*
X109552891Y-82833717D01*
X109549541Y-82824736D01*
X109502597Y-82698871D01*
X109502593Y-82698864D01*
X109416347Y-82583655D01*
X109416344Y-82583652D01*
X109301135Y-82497406D01*
X109301128Y-82497402D01*
X109166282Y-82447108D01*
X109166283Y-82447108D01*
X109106683Y-82440701D01*
X109106681Y-82440700D01*
X109106673Y-82440700D01*
X109106664Y-82440700D01*
X107893329Y-82440700D01*
X107893323Y-82440701D01*
X107833716Y-82447108D01*
X107698871Y-82497402D01*
X107698864Y-82497406D01*
X107583655Y-82583652D01*
X107583653Y-82583654D01*
X107579141Y-82589682D01*
X107523206Y-82631551D01*
X107453514Y-82636533D01*
X107410987Y-82618470D01*
X107325368Y-82561261D01*
X107132586Y-82481409D01*
X107132580Y-82481407D01*
X106927934Y-82440700D01*
X106927932Y-82440700D01*
X106719268Y-82440700D01*
X106719266Y-82440700D01*
X106514619Y-82481407D01*
X106514613Y-82481409D01*
X106321831Y-82561261D01*
X106148340Y-82677184D01*
X106148332Y-82677190D01*
X106000790Y-82824732D01*
X106000784Y-82824740D01*
X105884861Y-82998231D01*
X105805009Y-83191013D01*
X105805007Y-83191019D01*
X105764300Y-83395665D01*
X105764300Y-83395668D01*
X105764300Y-83604332D01*
X105764300Y-83604334D01*
X105764299Y-83604334D01*
X100500500Y-83604334D01*
X100500500Y-78838146D01*
X103467000Y-78838146D01*
X103467000Y-80161853D01*
X103502778Y-80387746D01*
X103502778Y-80387749D01*
X103573450Y-80605255D01*
X103650000Y-80755492D01*
X103677283Y-80809038D01*
X103811714Y-80994066D01*
X103973434Y-81155786D01*
X104158462Y-81290217D01*
X104362242Y-81394048D01*
X104362244Y-81394049D01*
X104579751Y-81464721D01*
X104579752Y-81464721D01*
X104579755Y-81464722D01*
X104805646Y-81500500D01*
X104805647Y-81500500D01*
X105034353Y-81500500D01*
X105034354Y-81500500D01*
X105260245Y-81464722D01*
X105260248Y-81464721D01*
X105260249Y-81464721D01*
X105477755Y-81394049D01*
X105477755Y-81394048D01*
X105477758Y-81394048D01*
X105681538Y-81290217D01*
X105866566Y-81155786D01*
X106028286Y-80994066D01*
X106089683Y-80909559D01*
X106145012Y-80866896D01*
X106214625Y-80860917D01*
X106276420Y-80893523D01*
X106290314Y-80909556D01*
X106351714Y-80994066D01*
X106513434Y-81155786D01*
X106698462Y-81290217D01*
X106902242Y-81394048D01*
X106902244Y-81394049D01*
X107119751Y-81464721D01*
X107119752Y-81464721D01*
X107119755Y-81464722D01*
X107345646Y-81500500D01*
X107345647Y-81500500D01*
X107574353Y-81500500D01*
X107574354Y-81500500D01*
X107800245Y-81464722D01*
X107800248Y-81464721D01*
X107800249Y-81464721D01*
X108017755Y-81394049D01*
X108017755Y-81394048D01*
X108017758Y-81394048D01*
X108221538Y-81290217D01*
X108406566Y-81155786D01*
X108568286Y-80994066D01*
X108702717Y-80809038D01*
X108806548Y-80605258D01*
X108877222Y-80387745D01*
X108878147Y-80381902D01*
X124799500Y-80381902D01*
X124799500Y-80618097D01*
X124836446Y-80851368D01*
X124909433Y-81075996D01*
X125016657Y-81286433D01*
X125155483Y-81477510D01*
X125322490Y-81644517D01*
X125513567Y-81783343D01*
X125612991Y-81834002D01*
X125724003Y-81890566D01*
X125724005Y-81890566D01*
X125724008Y-81890568D01*
X125844412Y-81929689D01*
X125948631Y-81963553D01*
X126181903Y-82000500D01*
X126181908Y-82000500D01*
X127418097Y-82000500D01*
X127651368Y-81963553D01*
X127875992Y-81890568D01*
X128086433Y-81783343D01*
X128277510Y-81644517D01*
X128444517Y-81477510D01*
X128583343Y-81286433D01*
X128690568Y-81075992D01*
X128763553Y-80851368D01*
X128800500Y-80618097D01*
X128800500Y-80381902D01*
X137499500Y-80381902D01*
X137499500Y-80618097D01*
X137536446Y-80851368D01*
X137609433Y-81075996D01*
X137716657Y-81286433D01*
X137855483Y-81477510D01*
X138022490Y-81644517D01*
X138213567Y-81783343D01*
X138312991Y-81834002D01*
X138424003Y-81890566D01*
X138424005Y-81890566D01*
X138424008Y-81890568D01*
X138544412Y-81929689D01*
X138648631Y-81963553D01*
X138881903Y-82000500D01*
X138881908Y-82000500D01*
X140118097Y-82000500D01*
X140351368Y-81963553D01*
X140575992Y-81890568D01*
X140786433Y-81783343D01*
X140977510Y-81644517D01*
X141144517Y-81477510D01*
X141283343Y-81286433D01*
X141390568Y-81075992D01*
X141463553Y-80851368D01*
X141500500Y-80618097D01*
X141500500Y-80381902D01*
X141463553Y-80148631D01*
X141390566Y-79924003D01*
X141283342Y-79713566D01*
X141144517Y-79522490D01*
X140977510Y-79355483D01*
X140786433Y-79216657D01*
X140575996Y-79109433D01*
X140351368Y-79036446D01*
X140118097Y-78999500D01*
X140118092Y-78999500D01*
X138881908Y-78999500D01*
X138881903Y-78999500D01*
X138648631Y-79036446D01*
X138424003Y-79109433D01*
X138213566Y-79216657D01*
X138104550Y-79295862D01*
X138022490Y-79355483D01*
X138022488Y-79355485D01*
X138022487Y-79355485D01*
X137855485Y-79522487D01*
X137855485Y-79522488D01*
X137855483Y-79522490D01*
X137795862Y-79604550D01*
X137716657Y-79713566D01*
X137609433Y-79924003D01*
X137536446Y-80148631D01*
X137499500Y-80381902D01*
X128800500Y-80381902D01*
X128763553Y-80148631D01*
X128690566Y-79924003D01*
X128583342Y-79713566D01*
X128444517Y-79522490D01*
X128277510Y-79355483D01*
X128086433Y-79216657D01*
X127875996Y-79109433D01*
X127651368Y-79036446D01*
X127418097Y-78999500D01*
X127418092Y-78999500D01*
X126181908Y-78999500D01*
X126181903Y-78999500D01*
X125948631Y-79036446D01*
X125724003Y-79109433D01*
X125513566Y-79216657D01*
X125404550Y-79295862D01*
X125322490Y-79355483D01*
X125322488Y-79355485D01*
X125322487Y-79355485D01*
X125155485Y-79522487D01*
X125155485Y-79522488D01*
X125155483Y-79522490D01*
X125095862Y-79604550D01*
X125016657Y-79713566D01*
X124909433Y-79924003D01*
X124836446Y-80148631D01*
X124799500Y-80381902D01*
X108878147Y-80381902D01*
X108913000Y-80161854D01*
X108913000Y-78838146D01*
X108877222Y-78612255D01*
X108877221Y-78612251D01*
X108877221Y-78612250D01*
X108806549Y-78394744D01*
X108806548Y-78394742D01*
X108702717Y-78190962D01*
X108568286Y-78005934D01*
X108406566Y-77844214D01*
X108221538Y-77709783D01*
X108025917Y-77610109D01*
X108017755Y-77605950D01*
X107800248Y-77535278D01*
X107630826Y-77508444D01*
X107574354Y-77499500D01*
X107345646Y-77499500D01*
X107270349Y-77511426D01*
X107119753Y-77535278D01*
X107119750Y-77535278D01*
X106902244Y-77605950D01*
X106698461Y-77709783D01*
X106592896Y-77786480D01*
X106513434Y-77844214D01*
X106513432Y-77844216D01*
X106513431Y-77844216D01*
X106351715Y-78005932D01*
X106290318Y-78090438D01*
X106234987Y-78133103D01*
X106165374Y-78139082D01*
X106103579Y-78106476D01*
X106089682Y-78090438D01*
X106078773Y-78075423D01*
X106028286Y-78005934D01*
X105866566Y-77844214D01*
X105681538Y-77709783D01*
X105485917Y-77610109D01*
X105477755Y-77605950D01*
X105260248Y-77535278D01*
X105090826Y-77508444D01*
X105034354Y-77499500D01*
X104805646Y-77499500D01*
X104730349Y-77511426D01*
X104579753Y-77535278D01*
X104579750Y-77535278D01*
X104362244Y-77605950D01*
X104158461Y-77709783D01*
X104052896Y-77786480D01*
X103973434Y-77844214D01*
X103973432Y-77844216D01*
X103973431Y-77844216D01*
X103811716Y-78005931D01*
X103811716Y-78005932D01*
X103811714Y-78005934D01*
X103753980Y-78085396D01*
X103677283Y-78190961D01*
X103573450Y-78394744D01*
X103502778Y-78612250D01*
X103502778Y-78612253D01*
X103467000Y-78838146D01*
X100500500Y-78838146D01*
X100500500Y-71393713D01*
X143999500Y-71393713D01*
X143999500Y-71606286D01*
X144032753Y-71816239D01*
X144098444Y-72018414D01*
X144194951Y-72207820D01*
X144319890Y-72379786D01*
X144470213Y-72530109D01*
X144642182Y-72655050D01*
X144650946Y-72659516D01*
X144701742Y-72707491D01*
X144718536Y-72775312D01*
X144695998Y-72841447D01*
X144650946Y-72880484D01*
X144642182Y-72884949D01*
X144470213Y-73009890D01*
X144319890Y-73160213D01*
X144194951Y-73332179D01*
X144098444Y-73521585D01*
X144032753Y-73723760D01*
X143999500Y-73933713D01*
X143999500Y-74146286D01*
X144032753Y-74356239D01*
X144098444Y-74558414D01*
X144194951Y-74747820D01*
X144319890Y-74919786D01*
X144470213Y-75070109D01*
X144642182Y-75195050D01*
X144650946Y-75199516D01*
X144701742Y-75247491D01*
X144718536Y-75315312D01*
X144695998Y-75381447D01*
X144650946Y-75420484D01*
X144642182Y-75424949D01*
X144470213Y-75549890D01*
X144319890Y-75700213D01*
X144194951Y-75872179D01*
X144098444Y-76061585D01*
X144032753Y-76263760D01*
X143999500Y-76473713D01*
X143999500Y-76686286D01*
X144032753Y-76896239D01*
X144098444Y-77098414D01*
X144194951Y-77287820D01*
X144319890Y-77459786D01*
X144470213Y-77610109D01*
X144642179Y-77735048D01*
X144642181Y-77735049D01*
X144642184Y-77735051D01*
X144831588Y-77831557D01*
X145033757Y-77897246D01*
X145243713Y-77930500D01*
X145243714Y-77930500D01*
X146756286Y-77930500D01*
X146756287Y-77930500D01*
X146966243Y-77897246D01*
X147168412Y-77831557D01*
X147357816Y-77735051D01*
X147392595Y-77709783D01*
X147529786Y-77610109D01*
X147529788Y-77610106D01*
X147529792Y-77610104D01*
X147680104Y-77459792D01*
X147680106Y-77459788D01*
X147680109Y-77459786D01*
X147805048Y-77287820D01*
X147805047Y-77287820D01*
X147805051Y-77287816D01*
X147901557Y-77098412D01*
X147967246Y-76896243D01*
X148000500Y-76686287D01*
X148000500Y-76473713D01*
X147967246Y-76263757D01*
X147901557Y-76061588D01*
X147805051Y-75872184D01*
X147805049Y-75872181D01*
X147805048Y-75872179D01*
X147680109Y-75700213D01*
X147529786Y-75549890D01*
X147357820Y-75424951D01*
X147357115Y-75424591D01*
X147349054Y-75420485D01*
X147298259Y-75372512D01*
X147281463Y-75304692D01*
X147303999Y-75238556D01*
X147349054Y-75199515D01*
X147357816Y-75195051D01*
X147379789Y-75179086D01*
X147529786Y-75070109D01*
X147529788Y-75070106D01*
X147529792Y-75070104D01*
X147680104Y-74919792D01*
X147680106Y-74919788D01*
X147680109Y-74919786D01*
X147805048Y-74747820D01*
X147805047Y-74747820D01*
X147805051Y-74747816D01*
X147901557Y-74558412D01*
X147967246Y-74356243D01*
X148000500Y-74146287D01*
X148000500Y-73933713D01*
X147967246Y-73723757D01*
X147901557Y-73521588D01*
X147805051Y-73332184D01*
X147805049Y-73332181D01*
X147805048Y-73332179D01*
X147680109Y-73160213D01*
X147529786Y-73009890D01*
X147357820Y-72884951D01*
X147357115Y-72884591D01*
X147349054Y-72880485D01*
X147298259Y-72832512D01*
X147281463Y-72764692D01*
X147303999Y-72698556D01*
X147349054Y-72659515D01*
X147357816Y-72655051D01*
X147379789Y-72639086D01*
X147529786Y-72530109D01*
X147529788Y-72530106D01*
X147529792Y-72530104D01*
X147680104Y-72379792D01*
X147680106Y-72379788D01*
X147680109Y-72379786D01*
X147805048Y-72207820D01*
X147805047Y-72207820D01*
X147805051Y-72207816D01*
X147901557Y-72018412D01*
X147967246Y-71816243D01*
X148000500Y-71606287D01*
X148000500Y-71393713D01*
X147967246Y-71183757D01*
X147901557Y-70981588D01*
X147805051Y-70792184D01*
X147805049Y-70792181D01*
X147805048Y-70792179D01*
X147680109Y-70620213D01*
X147529786Y-70469890D01*
X147357820Y-70344951D01*
X147168414Y-70248444D01*
X147168413Y-70248443D01*
X147168412Y-70248443D01*
X146966243Y-70182754D01*
X146966241Y-70182753D01*
X146966240Y-70182753D01*
X146804957Y-70157208D01*
X146756287Y-70149500D01*
X145243713Y-70149500D01*
X145195042Y-70157208D01*
X145033760Y-70182753D01*
X144831585Y-70248444D01*
X144642179Y-70344951D01*
X144470213Y-70469890D01*
X144319890Y-70620213D01*
X144194951Y-70792179D01*
X144098444Y-70981585D01*
X144032753Y-71183760D01*
X143999500Y-71393713D01*
X100500500Y-71393713D01*
X100500500Y-64583621D01*
X100520185Y-64516582D01*
X100572989Y-64470827D01*
X100642147Y-64460883D01*
X100705703Y-64489908D01*
X100743477Y-64548686D01*
X100746117Y-64559430D01*
X100794545Y-64802902D01*
X100794548Y-64802913D01*
X100888686Y-65113247D01*
X101012786Y-65412849D01*
X101012788Y-65412854D01*
X101165646Y-65698830D01*
X101165657Y-65698848D01*
X101345811Y-65968467D01*
X101345821Y-65968481D01*
X101551546Y-66219158D01*
X101780841Y-66448453D01*
X101780846Y-66448457D01*
X101780847Y-66448458D01*
X102031524Y-66654183D01*
X102301158Y-66834347D01*
X102301167Y-66834352D01*
X102301169Y-66834353D01*
X102587145Y-66987211D01*
X102587147Y-66987211D01*
X102587153Y-66987215D01*
X102886754Y-67111314D01*
X103197077Y-67205449D01*
X103197083Y-67205450D01*
X103197086Y-67205451D01*
X103197097Y-67205454D01*
X103396528Y-67245122D01*
X103515132Y-67268714D01*
X103837857Y-67300500D01*
X103837860Y-67300500D01*
X104162140Y-67300500D01*
X104162143Y-67300500D01*
X104484868Y-67268714D01*
X104642295Y-67237399D01*
X104802902Y-67205454D01*
X104802913Y-67205451D01*
X104802913Y-67205450D01*
X104802923Y-67205449D01*
X105113246Y-67111314D01*
X105412847Y-66987215D01*
X105698842Y-66834347D01*
X105968476Y-66654183D01*
X106219153Y-66448458D01*
X106448458Y-66219153D01*
X106654183Y-65968476D01*
X106834347Y-65698842D01*
X106987215Y-65412847D01*
X107111314Y-65113246D01*
X107205449Y-64802923D01*
X107205451Y-64802913D01*
X107205454Y-64802902D01*
X107251269Y-64572568D01*
X107268714Y-64484868D01*
X107300500Y-64162143D01*
X107300500Y-63837857D01*
X107268714Y-63515132D01*
X107229359Y-63317281D01*
X107205454Y-63197097D01*
X107205451Y-63197086D01*
X107205450Y-63197083D01*
X107205449Y-63197077D01*
X107111314Y-62886754D01*
X106987215Y-62587153D01*
X106834347Y-62301158D01*
X106654183Y-62031524D01*
X106448458Y-61780847D01*
X106448457Y-61780846D01*
X106448453Y-61780841D01*
X106219158Y-61551546D01*
X105968481Y-61345821D01*
X105968480Y-61345820D01*
X105968476Y-61345817D01*
X105698842Y-61165653D01*
X105698837Y-61165650D01*
X105698830Y-61165646D01*
X105412854Y-61012788D01*
X105412849Y-61012786D01*
X105113247Y-60888686D01*
X104802913Y-60794548D01*
X104802902Y-60794545D01*
X104559431Y-60746117D01*
X104497520Y-60713732D01*
X104462946Y-60653017D01*
X104466685Y-60583247D01*
X104507551Y-60526575D01*
X104572569Y-60500994D01*
X104583622Y-60500500D01*
X145416378Y-60500500D01*
X145483417Y-60520185D01*
G37*
%TD.AperFunction*%
%TD*%
M02*
